<svg preserveAspectRatio="xMidYMid meet" width="100%" height="100%" overflow="visible" style="display: block;" viewBox="0 0 24.002 19.7737" fill="none" xmlns="http://www.w3.org/2000/svg">
<g id="Group 1000004716">
<path id="Union" d="M5.17424 0.276127C6.5322 -0.00388067 7.92339 0.0397388 9.22081 0.539101C11.2412 1.31674 5.29585 1.17889 3.11392 4.21155C2.02826 5.72052 2.14412 7.94579 3.03462 9.5249C4.59874 12.2011 7.21535 14.2292 9.60877 16.1266C10.3481 16.7125 11.4807 17.4191 12.6549 17.2143C13.6105 17.0475 14.2402 16.3542 14.6408 15.4737C15.2089 14.2254 13.3704 12.5489 13.3704 12.5489C13.3704 12.5489 16.4113 14.3292 15.1968 17.4765C14.904 18.9071 14.0427 19.667 12.5114 19.7655C10.2863 19.9085 8.37924 18.1511 7.03516 17.0608C4.18524 14.7778 0.887862 11.8946 0.12497 8.15913C-0.166977 6.67453 0.0591935 5.13245 0.736771 3.782C1.58608 2.08094 3.27844 0.65738 5.17424 0.276127Z" fill="url(#paint0_linear_0_4)"/>
<path id="Vector" d="M23.6753 4.68312C23.8473 5.20751 23.9507 5.75185 23.9828 6.30262C24.0614 7.35423 23.8975 8.40979 23.5037 9.38855C23.0612 10.4951 22.4264 11.4712 21.7048 12.4174C20.6901 13.7481 19.4074 14.8836 18.1682 15.9978C17.9722 16.1536 17.592 16.4771 17.3883 16.5942C17.4418 16.3899 17.5164 16.2024 17.5707 16.0066C17.6765 15.6246 17.7581 15.1475 17.7682 14.7494C17.7807 14.2649 17.7287 13.7785 17.7033 13.2951C18.4484 12.5913 19.2506 11.9071 19.8541 11.0752C20.5341 10.229 21.1718 9.2872 21.4754 8.23855C21.8373 6.98701 21.6992 5.5135 21.0471 4.38829C20.453 3.36268 19.4494 2.71091 18.3172 2.40763C16.5539 1.93527 15.1607 2.79166 13.8366 3.81663C15.6742 -1.69192 22.1607 0.132049 23.6753 4.68312Z" fill="url(#paint1_linear_0_4)"/>
<path id="Subtract" d="M10.3049 4.24366C9.49073 5.37154 9.72306 7.44457 10.6684 8.34109C11.2225 8.8733 12.1705 9.10728 12.7275 9.44444C13.9226 10.043 15.094 10.6818 15.9623 11.7528C17.205 13.2851 17.333 15.2627 16.4116 17.2143C16.0288 18.025 14.5214 20.1947 11.411 19.694C14.3061 19.9086 15.1657 17.8938 15.1657 15.8678C15.1657 13.0531 12.6703 12.3314 10.789 10.9596C9.95656 10.3525 9.29411 9.36425 9.0851 8.3587C8.78445 6.9122 9.28062 5.3098 10.3049 4.24366Z" fill="url(#paint2_linear_0_4)"/>
<path id="Vector_2" d="M10.3988 4.09531C11.0687 4.57218 11.5918 5.02759 12.2172 5.50205C11.2279 6.58642 11.063 8.08856 12.265 9.15008C13.0818 9.69493 11.1544 8.83181 10.6389 8.34711C9.4251 7.20576 9.44071 5.17761 10.3988 4.09531Z" fill="url(#paint3_linear_0_4)"/>
<path id="Subtract_2" d="M16.0149 0.113961C19.5595 -0.542985 22.9323 1.70916 23.8055 5.12585C22.3263 1.06375 16.4097 0.289045 13.847 3.81668C13.4454 3.50451 12.4166 2.64616 12.0099 2.3362C13.1939 1.31523 14.4331 0.405233 16.0149 0.113961Z" fill="url(#paint4_linear_0_4)"/>
<path id="Subtract_3" d="M11.2909 1.71626C10.6821 1.20896 10.0102 0.87533 9.26847 0.589861C8.53157 0.306234 7.81793 0.190322 7.03207 0.190302C4.0457 0.190302 1.62476 2.6242 1.62475 5.62654C1.62476 6.84667 2.02466 7.97289 2.69979 8.88004L2.70643 8.88795C2.18629 7.42246 2.25521 5.66341 3.16159 4.40362C3.85984 3.44495 4.90899 2.79918 6.08166 2.60621C6.93033 2.47413 7.85248 2.58374 8.6156 2.96372C10.6933 3.9983 12.1774 6.07619 14.2853 6.97922C14.8376 7.21582 15.5483 7.23939 16.0901 6.96609C16.3678 6.84757 16.5693 6.70515 16.7975 6.51195C17.2007 6.17056 16.6457 5.95552 16.3237 5.72867C14.5928 4.3867 12.9355 3.08664 11.2909 1.71626Z" fill="url(#paint5_linear_0_4)"/>
</g>
<defs>
<linearGradient id="paint0_linear_0_4" x1="7.81609" y1="0.094845" x2="7.81609" y2="19.8644" gradientUnits="userSpaceOnUse">
<stop stop-color="#A5B4FC"/>
<stop offset="1" stop-color="#6366F1"/>
</linearGradient>
<linearGradient id="paint1_linear_0_4" x1="19.0283" y1="0.411397" x2="19.0283" y2="16.74" gradientUnits="userSpaceOnUse">
<stop stop-color="#EC4899"/>
<stop offset="1" stop-color="#F9A8D4"/>
</linearGradient>
<linearGradient id="paint2_linear_0_4" x1="9.69822" y1="5.04722" x2="12.9078" y2="19.8676" gradientUnits="userSpaceOnUse">
<stop offset="0.188219" stop-color="#F9A8D4"/>
<stop offset="1" stop-color="#818CF8"/>
</linearGradient>
<linearGradient id="paint3_linear_0_4" x1="10.8419" y1="4.05975" x2="11.276" y2="9.46713" gradientUnits="userSpaceOnUse">
<stop stop-color="#EC4899"/>
<stop offset="1" stop-color="#F9A8D4"/>
</linearGradient>
<linearGradient id="paint4_linear_0_4" x1="17.712" y1="0.471377" x2="10.9623" y2="4.65118" gradientUnits="userSpaceOnUse">
<stop stop-color="#F472B6"/>
<stop offset="1" stop-color="#EC4899"/>
</linearGradient>
<linearGradient id="paint5_linear_0_4" x1="13.4204" y1="1.83548" x2="-0.109629" y2="11.4841" gradientUnits="userSpaceOnUse">
<stop offset="0.0863457" stop-color="#A5B4FC"/>
<stop offset="1" stop-color="#6366F1"/>
</linearGradient>
</defs>
</svg>
